<?xml version="1.0" standalone="no"?>
<!DOCTYPE svg PUBLIC "-//W3C//DTD SVG 1.1//EN"
  "http://www.w3.org/Graphics/SVG/1.1/DTD/svg11.dtd">
<svg version="1.1" xmlns="http://www.w3.org/2000/svg" width="1792" height="1063" viewBox="-992 -32 1792 1063" id="ccdiagram"><defs><style type="text/css">@import url(&#x27;https://fonts.googleapis.com/css?family=Open+Sans:400,700&#x27;);</style></defs><g><filter id="dropshadow" height="130%"><feGaussianBlur in="SourceAlpha" stdDeviation="3"></feGaussianBlur><feOffset dx="3" dy="6" result="offsetblur"></feOffset><feComponentTransfer><feFuncA type="linear" slope="0.4"></feFuncA></feComponentTransfer><feMerge><feMergeNode></feMergeNode><feMergeNode in="SourceGraphic"></feMergeNode></feMerge></filter><g><g style="pointer-events:none"><g><pattern id="gridPatternMinor" x="0" y="37" width="128" height="74" patternUnits="userSpaceOnUse"><path d="M 0 0 L 128 74" stroke="#eee" stroke-width="1"></path><path d="M 128 0 L 0 74" stroke="#eee" stroke-width="1"></path></pattern><polygon points="0 0, 768 444, -192 999, -960 555" fill="url(#gridPatternMinor)"></polygon></g><polygon points="-960 555, -960 565, -192 1009, -192 999" stroke-linejoin="round" stroke="#54626f" stroke-width="1" fill="#f9f9f9"></polygon><polygon points="-192 1009, 768 454, 768 444, -192 999" stroke-linejoin="round" stroke="#54626f" stroke-width="1" fill="#e2e2e2"></polygon></g><g pointer-events=""><g><g><polygon points="-96 130, 32 204, 32 241, -480 537, -544 537, -672 463, -672 426, -336 231, -336 231, -160 130" fill="#ffc107" stroke-width="2" stroke="#818181"></polygon><polygon points="-128 148, 0 222, -512 518, -640 444, -304 250" fill="#e6e7e8" stroke-width="0" stroke="#818181"></polygon></g></g><g cursor="all-scroll"><svg x="-368" y="305" overflow="visible" style="user-select:none"><g fill="#e8e8e8"><polygon points="0 0, 600 347, 536 384, -64 37" stroke="#e8e8e8" stroke-width="40"></polygon></g></svg></g><g><g><polygon points="32 204, 160 278, 160 315, -352 611, -416 611, -544 537, -544 500, -208 305, -208 305, -32 204" fill="#ffc107" stroke-width="2" stroke="#818181"></polygon><polygon points="0 222, 128 296, -384 592, -512 518, -176 324" fill="#e6e7e8" stroke-width="0" stroke="#818181"></polygon></g></g><g><g><polygon points="160 278, 288 352, 288 389, -224 685, -288 685, -416 611, -416 574, -80 379, -80 379, 96 278" fill="#ffc107" stroke-width="2" stroke="#818181"></polygon><polygon points="128 296, 256 370, -256 666, -384 592, -48 398" fill="#e6e7e8" stroke-width="0" stroke="#818181"></polygon></g></g><g><g><polygon points="352 389, 480 463, 480 500, -32 796, -96 796, -224 722, -224 685, 112 490, 112 490, 288 389" fill="#ffc107" stroke-width="2" stroke="#818181"></polygon><polygon points="320 407, 448 481, -64 777, -192 703, 144 509" fill="#e6e7e8" stroke-width="0" stroke="#818181"></polygon></g></g><g><svg x="-192" y="204" overflow="visible" style="user-select:none"><g fill="#e8e8e8"><polygon points="0 0, 603 349, 503 406, -100 58" stroke="#e8e8e8" stroke-width="40"></polygon></g></svg></g><g><svg x="-365" y="307" overflow="visible" style="user-select:none"><g fill="#e6e7e8"><polygon points="0 0, 600 347, 364 483, -236 137" stroke="#e6e7e8" stroke-width="40"></polygon></g></svg></g></g><g style="pointer-events:none"><g><pattern id="gridPatternMajor" x="0" y="37" width="128" height="74" patternUnits="userSpaceOnUse"><path d="M 64 0 L 128 37 64 74 0 37 z" stroke="#54626f" stroke-width="1" fill="none"></path></pattern><polygon points="0 0, 768 444, -192 999, -960 555" fill="url(#gridPatternMajor)"></polygon></g></g><g pointer-events=""></g><g pointer-events="none"></g><g pointer-events=""><g><g cursor="cell"><line x1="-400" y1="398" x2="-496" y2="342" stroke="red" stroke-width="8" opacity="0"></line><line x1="-400" y1="398" x2="-496" y2="342" stroke="#000000" stroke-width="2" stroke-linecap="round"></line></g></g><g><g cursor="cell"><line x1="-184" y1="856" x2="-278" y2="801" stroke="red" stroke-width="8" opacity="0"></line><line x1="-184" y1="856" x2="-278" y2="801" stroke="#000000" stroke-width="2" stroke-linecap="round"></line><polygon points="-288 796, -279 810, -276 803, -262 801, -288 796" stroke-linejoin="round" fill="#000000" stroke="#000000" stroke-width="1"></polygon></g></g><g><g cursor="cell"><line x1="-540" y1="650" x2="-630" y2="598" stroke="red" stroke-width="8" opacity="0"></line><line x1="-540" y1="650" x2="-630" y2="598" stroke="#000000" stroke-width="2" stroke-linecap="round"></line><polygon points="-640 592, -631 607, -628 599, -614 597, -640 592" stroke-linejoin="round" fill="#000000" stroke="#000000" stroke-width="1"></polygon></g></g><g><g cursor="cell"><line x1="-364" y1="751" x2="-454" y2="699" stroke="red" stroke-width="8" opacity="0"></line><line x1="-364" y1="751" x2="-454" y2="699" stroke="#000000" stroke-width="2" stroke-linecap="round"></line><polygon points="-464 694, -455 709, -452 701, -438 699, -464 694" stroke-linejoin="round" fill="#000000" stroke="#000000" stroke-width="1"></polygon></g></g><g><g cursor="cell"><line x1="-648" y1="587" x2="-222" y2="565" stroke="red" stroke-width="8" opacity="0"></line><line x1="-648" y1="587" x2="-222" y2="565" stroke="#000000" stroke-width="2" stroke-linecap="round"></line><polygon points="-208 564, -234 559, -226 565, -231 572, -208 564" stroke-linejoin="round" fill="#000000" stroke="#000000" stroke-width="1"></polygon></g></g><g><g cursor="cell"><line x1="-656" y1="527" x2="51" y2="409" stroke="red" stroke-width="8" opacity="0"></line><line x1="-656" y1="527" x2="51" y2="409" stroke="#000000" stroke-width="2" stroke-linecap="round"></line><polygon points="64 407, 37 405, 47 410, 44 417, 64 407" stroke-linejoin="round" fill="#000000" stroke="#000000" stroke-width="1"></polygon></g></g></g><g pointer-events=""><g><g transform="translate(0 0)"><svg x="-240" y="130" height="137.556" width="128" viewBox="0 0 33.866665 36.394987"><g style="line-height:0%" fill="#4286c5" font-family="sans-serif" font-size="3.175" stroke-width=".265"><path d="M.187 12.17v14.365l16.586 9.577V21.747l-4.146-7.183-8.293-4.787z" fill="#d2d2d4"></path><path d="M20.955 14.564l8.292-4.787 4.147 2.394v14.364l-16.587 9.576V21.748z" fill="#b8b8bb"></path><path d="M4.334 9.777l8.292 4.788h8.293l8.293-4.788V4.988L20.919.2h-8.293L4.334 4.988zM12.856 14.565h8.294l-4.147 7.182z" fill="#ececed"></path><path d="M4.394 4.806v4.789L.247 11.988zM29.212 9.595v-4.79l4.146 7.183z" fill="#d2d2d4"></path><path d="M208.47 90.288l4.345-4.346 4.346 8.693z" fill="none" stroke="#83838a" stroke-width=".264" transform="scale(1.34943 .77909) rotate(45 195.366 -185.783)"></path><path d="M199.734 94.678l13.037 13.037h17.383L217.117 94.68l-8.692-4.347h-8.69zM212.819 85.928v-8.69h4.345l13.037 13.037.001 17.382-13.037-13.037zM199.734 90.333h8.69l4.347-4.346v-8.69l-4.347-4.347h-8.69l-4.346 4.346v8.69z" fill="none" stroke="#83838a" stroke-width=".257" transform="scale(1.34943 .77909) rotate(45 195.366 -185.783)"></path><path d="M212.855 107.631l-13.037-13.037-4.346-8.692v-8.69l4.346-4.347h8.69l8.692 4.346 13.038 13.038v17.383z" fill="none" stroke="#000000" stroke-width=".514" transform="scale(1.34943 .77909) rotate(45 195.366 -185.783)"></path><path style="line-height:1.25;-inkscape-font-specification:&#x27;Open Sans&#x27;" d="M16.846 5.957l.694.4q1.019.59 1.844.673.825.084 1.553-.336.722-.416.527-.88-.187-.461-1.227-1.062l-.652-.376zM15.1 6.967l-3.89 2.245-2.15-1.241 10.138-5.853 2.954 1.706q2.066 1.193 2.302 2.201.243 1.005-1.29 1.89-.894.516-2.087.637-1.186.116-2.482-.177-1.13 3.295-1.436 4.272l-2.385-1.377 1.47-3.643z" font-family="Open Sans" font-size="15.26"></path></g></svg></g></g><g><g transform="translate(0 0)"><svg x="-112" y="194" height="147.802" width="128" viewBox="0 0 33.86664 39.105919"><g transform="translate(427.037 -129.28)"><path d="M-410.104 163.269v4.812l16.669-9.624v-4.812z" fill="#821c17" fill-rule="evenodd"></path><path d="M-426.773 153.645v4.812l16.669 9.624v-4.812z" fill="#ad261f" fill-rule="evenodd"></path><path d="M-426.773 153.645l16.669-9.623 16.669 9.623-16.67 9.624z" fill="#d82f27" fill-rule="evenodd"></path><path d="M-426.773 153.645l16.669 9.624 16.669-9.624M-410.104 163.269v4.812" fill="none" stroke="#841b1b" stroke-width=".265"></path><path d="M-426.773 153.645v4.812l16.669 9.624 16.669-9.624v-4.812l-16.67-9.623z" fill="none" stroke="#841b1b" stroke-width=".267"></path><path d="M-410.104 156.051v4.812l16.669-9.624v-4.812z" fill="#821c17" fill-rule="evenodd"></path><path d="M-426.773 146.427v4.812l16.669 9.624v-4.812z" fill="#ad261f" fill-rule="evenodd"></path><path d="M-426.773 146.427l16.669-9.623 16.669 9.623-16.67 9.624z" fill="#d82f27" fill-rule="evenodd"></path><path d="M-426.773 146.427l16.669 9.624 16.669-9.624M-410.104 156.051v4.812" fill="none" stroke="#841b1b" stroke-width=".265"></path><path d="M-426.773 146.427v4.812l16.669 9.624 16.669-9.624v-4.812l-16.67-9.623z" fill="none" stroke="#841b1b" stroke-width=".265"></path><path d="M-410.104 148.833v4.812l16.669-9.623v-4.812z" fill="#821c17" fill-rule="evenodd"></path><path d="M-426.773 139.21v4.812l16.669 9.623v-4.812z" fill="#ad261f" fill-rule="evenodd"></path><path d="M-426.773 139.21l16.669-9.624 16.669 9.624-16.67 9.623z" fill="#d82f27" fill-rule="evenodd"></path><path d="M-426.773 139.21l16.669 9.623 16.669-9.623M-410.104 148.833v4.812" fill="none" stroke="#841b1b" stroke-width=".265"></path><path d="M-426.773 139.21v4.812l16.669 9.623 16.669-9.623v-4.812l-16.67-9.624z" fill="none" stroke="#841b1b" stroke-width=".265"></path><circle cx="-102.876" cy="379.801" fill="#fff" r="2.583" transform="scale(1.22375 .70883) rotate(45)"></circle><path d="M-411.23 137.18l-.855-1.635-2.811-.518 2.42-.977-.017-1.709 2.352 1.032 2.8-.538-.967 1.614 1.748 1.377-2.95-.034zM-409.034 146.416l-5.156-3.026 7.102-1.073z" fill="#fff"></path><path d="M-401.907 141.896l-4.515-2.615 4.515-2.615 4.515 2.615z" fill="#821c17"></path><path d="M-401.907 136.666v5.23l4.515-2.615z" fill="#561310" fill-rule="evenodd"></path><path d="M-410.104 129.586l-16.669 9.624v4.811l2.084 1.203-2.084 1.203v4.812l2.084 1.203-2.084 1.203v4.812l16.669 9.624 16.669-9.624v-4.812l-2.084-1.203 2.084-1.203v-4.812l-2.084-1.203 2.084-1.203v-4.811z" fill="none" stroke="#000000" stroke-width=".529"></path></g></svg></g></g><g><g transform="translate(0 0)"><svg x="-496" y="278" height="137.556" width="128" viewBox="0 0 33.866665 36.394987"><g style="line-height:0%" fill="#4286c5" font-family="sans-serif" font-size="3.175" stroke-width=".265"><path d="M.187 12.17v14.365l16.586 9.577V21.747l-4.146-7.183-8.293-4.787z" fill="#d2d2d4"></path><path d="M20.955 14.564l8.292-4.787 4.147 2.394v14.364l-16.587 9.576V21.748z" fill="#b8b8bb"></path><path d="M4.334 9.777l8.292 4.788h8.293l8.293-4.788V4.988L20.919.2h-8.293L4.334 4.988zM12.856 14.565h8.294l-4.147 7.182z" fill="#ececed"></path><path d="M4.394 4.806v4.789L.247 11.988zM29.212 9.595v-4.79l4.146 7.183z" fill="#d2d2d4"></path><path d="M208.47 90.288l4.345-4.346 4.346 8.693z" fill="none" stroke="#83838a" stroke-width=".264" transform="scale(1.34943 .77909) rotate(45 195.366 -185.783)"></path><path d="M199.734 94.678l13.037 13.037h17.383L217.117 94.68l-8.692-4.347h-8.69zM212.819 85.928v-8.69h4.345l13.037 13.037.001 17.382-13.037-13.037zM199.734 90.333h8.69l4.347-4.346v-8.69l-4.347-4.347h-8.69l-4.346 4.346v8.69z" fill="none" stroke="#83838a" stroke-width=".257" transform="scale(1.34943 .77909) rotate(45 195.366 -185.783)"></path><path d="M212.855 107.631l-13.037-13.037-4.346-8.692v-8.69l4.346-4.347h8.69l8.692 4.346 13.038 13.038v17.383z" fill="none" stroke="#000000" stroke-width=".514" transform="scale(1.34943 .77909) rotate(45 195.366 -185.783)"></path><path style="line-height:1.25;-inkscape-font-specification:&#x27;Open Sans&#x27;" d="M10.6 9.65l5.492-5.978-.062-.036q-2.286 1.471-3.094 1.938L8.238 8.286 6.325 7.18l10.099-5.83 2.915 1.682-5.333 5.84.042.023 10.258-2.995 2.915 1.683-10.1 5.83-1.996-1.152 4.78-2.76q.339-.195.788-.447.456-.247 2.445-1.3l-.062-.036-10.514 3.063z" font-family="Open Sans" font-size="14.883"></path></g></svg></g></g><g><g transform="translate(0 0)"><svg x="48" y="303" height="113.438" width="96" viewBox="0 0 25.400052 30.013873"><g transform="translate(412.599 -86.957)"><path d="M-412.333 102.348v4.786l8.29 4.785h8.289l8.29-4.785v-4.786l-8.29-4.786h-8.29z" fill="#3c3c3c" fill-rule="evenodd"></path><path d="M-395.754 111.92l8.29-4.786v4.785l-8.29 4.786z" fill="#090909" fill-rule="evenodd"></path><path d="M-404.044 111.92h8.29v4.785h-8.29z" fill="#232323" fill-rule="evenodd"></path><path d="M-412.333 107.134v4.785l8.29 4.786v-4.786z" fill="#232323" fill-rule="evenodd"></path><path d="M-412.333 107.134l8.29 4.785h8.289l8.29-4.785M-404.044 111.92v4.785M-395.754 111.92v4.785" fill="none" stroke="#000" stroke-width=".26588"></path><path d="M-412.333 102.348v9.571l8.29 4.786h8.289l8.29-4.786v-9.571l-8.29-4.786h-8.29z" fill="none" stroke="#000000" stroke-width=".53176"></path><path d="M-412.333 97.178v4.786l8.29 4.786h8.289l8.29-4.786v-4.786l-8.29-4.786h-8.29z" fill="#3c3c3c" fill-rule="evenodd"></path><path d="M-395.754 106.75l8.29-4.786v4.786l-8.29 4.786z" fill="#090909" fill-rule="evenodd"></path><path d="M-404.044 106.75h8.29v4.786h-8.29z" fill="#232323" fill-rule="evenodd"></path><path d="M-412.333 101.964v4.786l8.29 4.786v-4.786z" fill="#232323" fill-rule="evenodd"></path><path d="M-412.333 101.964l8.29 4.786h8.289l8.29-4.786M-404.044 106.75v4.786M-395.754 106.75v4.786" fill="none" stroke="#000" stroke-width=".266"></path><path d="M-412.333 97.178v9.572l8.29 4.786h8.289l8.29-4.786v-9.572l-8.29-4.786h-8.29z" fill="none" stroke="#000000" stroke-width=".532"></path><path d="M-412.333 92.01v4.785l8.29 4.786h8.289l8.29-4.786v-4.786l-8.29-4.786h-8.29z" fill="#3c3c3c" fill-rule="evenodd"></path><path d="M-395.754 101.58l8.29-4.785v4.786l-8.29 4.786z" fill="#090909" fill-rule="evenodd"></path><path d="M-404.044 101.58h8.29v4.787h-8.29z" fill="#232323" fill-rule="evenodd"></path><path d="M-412.333 96.795v4.786l8.29 4.786v-4.786z" fill="#232323" fill-rule="evenodd"></path><path d="M-412.333 96.795l8.29 4.786h8.289l8.29-4.786M-404.044 101.58v4.787M-395.754 101.58v4.787" fill="none" stroke="#000" stroke-width=".266"></path><path d="M-412.333 92.01v9.57l8.29 4.787h8.289l8.29-4.786v-9.572l-8.29-4.786h-8.29z" fill="none" stroke="#000000" stroke-width=".532"></path><circle cx="-136.478" cy="325.284" fill="#f4b934" r="5.801" transform="scale(1.22475 .7071) rotate(45)"></circle><g style="line-height:0%" font-family="sans-serif" font-size="3.191" stroke-width=".266"><path style="line-height:1.25;-inkscape-font-specification:&#x27;Droid Serif&#x27;" d="M-399.242 93.57l.48-.601q.222-.275.177-.448-.04-.17-.467-.416l-.507-.293 1.065-.614.937.541q.825.476.92.934.1.46-.417 1.114l-3.452 4.39-1.622-.937 1.654-2.121-3.729.923-1.622-.936z" fill="#fff" font-family="Droid Serif" font-size="9.971"></path></g></g></svg></g></g><g><g transform="translate(0 0)"><svg x="-368" y="342" height="147.802" width="128" viewBox="0 0 33.86664 39.105919"><g transform="translate(427.037 -129.28)"><path d="M-410.104 163.269v4.812l16.669-9.624v-4.812z" fill="#821c17" fill-rule="evenodd"></path><path d="M-426.773 153.645v4.812l16.669 9.624v-4.812z" fill="#ad261f" fill-rule="evenodd"></path><path d="M-426.773 153.645l16.669-9.623 16.669 9.623-16.67 9.624z" fill="#d82f27" fill-rule="evenodd"></path><path d="M-426.773 153.645l16.669 9.624 16.669-9.624M-410.104 163.269v4.812" fill="none" stroke="#841b1b" stroke-width=".265"></path><path d="M-426.773 153.645v4.812l16.669 9.624 16.669-9.624v-4.812l-16.67-9.623z" fill="none" stroke="#841b1b" stroke-width=".267"></path><path d="M-410.104 156.051v4.812l16.669-9.624v-4.812z" fill="#821c17" fill-rule="evenodd"></path><path d="M-426.773 146.427v4.812l16.669 9.624v-4.812z" fill="#ad261f" fill-rule="evenodd"></path><path d="M-426.773 146.427l16.669-9.623 16.669 9.623-16.67 9.624z" fill="#d82f27" fill-rule="evenodd"></path><path d="M-426.773 146.427l16.669 9.624 16.669-9.624M-410.104 156.051v4.812" fill="none" stroke="#841b1b" stroke-width=".265"></path><path d="M-426.773 146.427v4.812l16.669 9.624 16.669-9.624v-4.812l-16.67-9.623z" fill="none" stroke="#841b1b" stroke-width=".265"></path><path d="M-410.104 148.833v4.812l16.669-9.623v-4.812z" fill="#821c17" fill-rule="evenodd"></path><path d="M-426.773 139.21v4.812l16.669 9.623v-4.812z" fill="#ad261f" fill-rule="evenodd"></path><path d="M-426.773 139.21l16.669-9.624 16.669 9.624-16.67 9.623z" fill="#d82f27" fill-rule="evenodd"></path><path d="M-426.773 139.21l16.669 9.623 16.669-9.623M-410.104 148.833v4.812" fill="none" stroke="#841b1b" stroke-width=".265"></path><path d="M-426.773 139.21v4.812l16.669 9.623 16.669-9.623v-4.812l-16.67-9.624z" fill="none" stroke="#841b1b" stroke-width=".265"></path><circle cx="-102.876" cy="379.801" fill="#fff" r="2.583" transform="scale(1.22375 .70883) rotate(45)"></circle><path d="M-411.23 137.18l-.855-1.635-2.811-.518 2.42-.977-.017-1.709 2.352 1.032 2.8-.538-.967 1.614 1.748 1.377-2.95-.034zM-409.034 146.416l-5.156-3.026 7.102-1.073z" fill="#fff"></path><path d="M-401.907 141.896l-4.515-2.615 4.515-2.615 4.515 2.615z" fill="#821c17"></path><path d="M-401.907 136.666v5.23l4.515-2.615z" fill="#561310" fill-rule="evenodd"></path><path d="M-410.104 129.586l-16.669 9.624v4.811l2.084 1.203-2.084 1.203v4.812l2.084 1.203-2.084 1.203v4.812l16.669 9.624 16.669-9.624v-4.812l-2.084-1.203 2.084-1.203v-4.812l-2.084-1.203 2.084-1.203v-4.811z" fill="none" stroke="#000000" stroke-width=".529"></path></g></svg></g></g><g><g transform="translate(0 0)"><svg x="224" y="426" height="111" width="128" fill-rule="evenodd"><path d="M64 74v37l64-37V37L64 74z" fill="#b8b8bb"></path><path d="M0 37v37l64 37V74L0 37z" fill="#d2d2d4"></path><path d="M0 37L64 0l64 37-64 37L0 37z" fill="#ececed"></path><path d="M64 73.407l62.111-35.86.514.889-62.487 36.078h-.276L.743 38.072l.514-.89L64 73.407z" fill="#83838a"></path><path d="M63.486 74h1.027v36h-1.027z" fill="#83838a"></path><path d="M128 37v37l-64 37L0 74V37L64 0l64 37zM2.054 38.185v34.63L64 108.627l61.946-35.812v-34.63L64 2.373 2.054 38.185z" fill="#000000"></path></svg><svg x="279" y="443" width="60" height="35" style="user-select:none;overflow:visible;cursor:default"><rect transform="matrix(0.707 0.409 -0.707 0.409 0 0)" width="60" height="35" rx="5" ry="5" fill="#4286c5"></rect><text transform="matrix(0.707 0.409 -0.707 0.409 0 0)" font-family="Open Sans" font-size="20pt" fill="#ffffff" text-anchor="middle" x="50%" y="75%"><tspan>T2</tspan></text></svg></g></g><g><g transform="translate(0 0)"><svg x="-192" y="460" height="113.438" width="96" viewBox="0 0 25.400052 30.013873"><g transform="translate(412.599 -86.957)"><path d="M-412.333 102.348v4.786l8.29 4.785h8.289l8.29-4.785v-4.786l-8.29-4.786h-8.29z" fill="#3c3c3c" fill-rule="evenodd"></path><path d="M-395.754 111.92l8.29-4.786v4.785l-8.29 4.786z" fill="#090909" fill-rule="evenodd"></path><path d="M-404.044 111.92h8.29v4.785h-8.29z" fill="#232323" fill-rule="evenodd"></path><path d="M-412.333 107.134v4.785l8.29 4.786v-4.786z" fill="#232323" fill-rule="evenodd"></path><path d="M-412.333 107.134l8.29 4.785h8.289l8.29-4.785M-404.044 111.92v4.785M-395.754 111.92v4.785" fill="none" stroke="#000" stroke-width=".26588"></path><path d="M-412.333 102.348v9.571l8.29 4.786h8.289l8.29-4.786v-9.571l-8.29-4.786h-8.29z" fill="none" stroke="#000000" stroke-width=".53176"></path><path d="M-412.333 97.178v4.786l8.29 4.786h8.289l8.29-4.786v-4.786l-8.29-4.786h-8.29z" fill="#3c3c3c" fill-rule="evenodd"></path><path d="M-395.754 106.75l8.29-4.786v4.786l-8.29 4.786z" fill="#090909" fill-rule="evenodd"></path><path d="M-404.044 106.75h8.29v4.786h-8.29z" fill="#232323" fill-rule="evenodd"></path><path d="M-412.333 101.964v4.786l8.29 4.786v-4.786z" fill="#232323" fill-rule="evenodd"></path><path d="M-412.333 101.964l8.29 4.786h8.289l8.29-4.786M-404.044 106.75v4.786M-395.754 106.75v4.786" fill="none" stroke="#000" stroke-width=".266"></path><path d="M-412.333 97.178v9.572l8.29 4.786h8.289l8.29-4.786v-9.572l-8.29-4.786h-8.29z" fill="none" stroke="#000000" stroke-width=".532"></path><path d="M-412.333 92.01v4.785l8.29 4.786h8.289l8.29-4.786v-4.786l-8.29-4.786h-8.29z" fill="#3c3c3c" fill-rule="evenodd"></path><path d="M-395.754 101.58l8.29-4.785v4.786l-8.29 4.786z" fill="#090909" fill-rule="evenodd"></path><path d="M-404.044 101.58h8.29v4.787h-8.29z" fill="#232323" fill-rule="evenodd"></path><path d="M-412.333 96.795v4.786l8.29 4.786v-4.786z" fill="#232323" fill-rule="evenodd"></path><path d="M-412.333 96.795l8.29 4.786h8.289l8.29-4.786M-404.044 101.58v4.787M-395.754 101.58v4.787" fill="none" stroke="#000" stroke-width=".266"></path><path d="M-412.333 92.01v9.57l8.29 4.787h8.289l8.29-4.786v-9.572l-8.29-4.786h-8.29z" fill="none" stroke="#000000" stroke-width=".532"></path><circle cx="-136.478" cy="325.284" fill="#f4b934" r="5.801" transform="scale(1.22475 .7071) rotate(45)"></circle><g style="line-height:0%" font-family="sans-serif" font-size="3.191" stroke-width=".266"><path style="line-height:1.25;-inkscape-font-specification:&#x27;Droid Serif&#x27;" d="M-399.242 93.57l.48-.601q.222-.275.177-.448-.04-.17-.467-.416l-.507-.293 1.065-.614.937.541q.825.476.92.934.1.46-.417 1.114l-3.452 4.39-1.622-.937 1.654-2.121-3.729.923-1.622-.936z" fill="#fff" font-family="Droid Serif" font-size="9.971"></path></g></g></svg></g></g><g><g transform="translate(0 0)"><svg x="-766" y="483" height="108.05" width="123" viewBox="0 0 32.543749 28.588253"><path d="M10.115 6.02v14.218l7.873-4.318V1.474z" fill="#090909" fill-rule="evenodd" stroke="#000" stroke-width=".268"></path><path d="M.265 2.228l9.85 3.791v14.219l-9.85-8.531z" fill="#232323" fill-rule="evenodd" stroke="#000" stroke-width=".265"></path><path d="M10.115 6.02l7.873-4.546L3.548.332.265 2.228z" fill="#3c3c3c" fill-rule="evenodd" stroke="#000" stroke-width=".265"></path><path d="M.265 11.707l9.85 8.53 7.873-4.317V1.474L3.392.271.265 2.076z" fill="none" stroke="#000000" stroke-width=".529"></path><path d="M22.429 3.65L14.22 8.39l14.828 10.397 3.231-1.866z" fill="#3c3c3c" fill-rule="evenodd" stroke="#000" stroke-width=".268"></path><path d="M14.22 8.39V22.61l14.777 5.687.051-9.509z" fill="#232323" fill-rule="evenodd" stroke="#000" stroke-width=".265"></path><path d="M29.048 18.787l3.231-1.866V26.4l-3.282 1.897z" fill="#090909" fill-rule="evenodd" stroke="#000" stroke-width=".265"></path><path d="M22.429 3.65L14.22 8.39V22.61l14.777 5.687 3.282-1.897v-9.478z" fill="none" stroke="#000000" stroke-width=".529"></path><path d="M21.09 20.43q.163.375.048.64t-.44.265q-.326 0-.671-.265-.346-.265-.509-.64-.162-.374-.047-.639t.44-.265q.326 0 .671.265.346.265.509.64zm1.573-1.808q.08.184.022.318-.059.134-.218.134-.16 0-.335-.134-.176-.135-.255-.318-.082-.187-.024-.32.058-.132.22-.132.163 0 .336.132.173.133.254.32zm1.573 3.617q.08.184.021.318-.058.134-.218.134t-.335-.134q-.175-.135-.255-.318-.081-.187-.023-.32.057-.132.22-.132t.335.132q.173.133.255.32zm-1.826-1.487l-.284-.654q-.016-.035-.052-.068-.036-.034-.065-.038l-.513-.084q-.088-.124-.215-.269.03-.17.1-.406.006-.035-.01-.07-.018-.043-.05-.068-.117-.106-.39-.316-.275-.21-.333-.21-.034 0-.054.025l-.215.317q-.143-.067-.284-.11-.2-.38-.309-.547-.058-.085-.129-.085h-.571q-.034 0-.05.027-.016.026-.004.062l.164.54q-.089.036-.182.11l-.5-.315q-.032-.024-.071-.024-.034 0-.053.028-.238.47-.196.565.014.032.05.067.053.05.208.187.155.138.238.216-.003.155.018.29l-.43.084q-.029.004-.038.034-.008.03.008.069l.285.653q.015.036.051.069.036.033.065.037l.513.085q.088.124.215.268-.03.17-.1.407-.005.038.01.07.018.043.052.07.113.107.388.315.275.208.333.209.034 0 .054-.025l.215-.318q.132.064.286.113.2.382.307.544.058.085.129.085h.571q.034 0 .05-.027.016-.026.004-.062l-.164-.54q.089-.035.183-.11l.499.315q.035.024.072.024.033 0 .052-.028.238-.47.196-.565-.014-.032-.05-.067-.062-.057-.212-.19-.15-.135-.23-.213-.004-.169-.022-.29l.431-.08q.028-.007.036-.038.008-.03-.008-.068zm1.147-1.883l-.215-.494q-.025-.057-.505-.11-.079-.095-.172-.183-.017-.4-.056-.488-.006-.014-.023-.024-.483-.251-.49-.251-.024 0-.069.166-.044.166-.055.24-.064-.007-.095-.007t-.09.007q-.075-.074-.264-.24-.188-.166-.213-.166-.006 0-.272.25-.008.011-.002.025.039.088.369.488-.017.088-.012.183-.435.053-.41.11l.215.494q.024.057.505.11.084.102.172.184.017.399.055.487.006.014.023.025l.138.07.234.12q.11.057.117.057.024 0 .07-.164.045-.164.056-.239.064.007.095.007.03 0 .089-.007.266.251.455.396l.021.007q.012 0 .273-.247.008-.01.002-.025-.038-.088-.368-.487.017-.082.012-.184.435-.053.41-.11zm1.572 3.617l-.215-.494q-.024-.057-.505-.11-.078-.095-.172-.184-.017-.399-.055-.487-.006-.014-.023-.025-.484-.25-.49-.25-.025 0-.069.165-.044.166-.055.24-.065-.006-.096-.006-.03 0-.089.007-.075-.075-.264-.24-.189-.166-.213-.166-.006 0-.272.25-.008.01-.002.025.038.088.369.487-.017.088-.013.184-.434.053-.41.11l.215.494q.025.057.505.11.085.102.173.183.016.4.055.488.006.014.023.024l.138.07.233.121q.111.057.117.057.025 0 .07-.165.045-.164.056-.238.065.007.095.007.031 0 .09-.007.265.25.454.396l.022.007q.012 0 .273-.248.008-.01.002-.024-.038-.088-.369-.488.017-.08.013-.183.434-.053.41-.11z" fill="#f4b934"></path></svg></g></g><g><g transform="translate(0 0)"><svg x="32" y="537" height="111" width="128" fill-rule="evenodd"><path d="M64 74v37l64-37V37L64 74z" fill="#b8b8bb"></path><path d="M0 37v37l64 37V74L0 37z" fill="#d2d2d4"></path><path d="M0 37L64 0l64 37-64 37L0 37z" fill="#ececed"></path><path d="M64 73.407l62.111-35.86.514.889-62.487 36.078h-.276L.743 38.072l.514-.89L64 73.407z" fill="#83838a"></path><path d="M63.486 74h1.027v36h-1.027z" fill="#83838a"></path><path d="M128 37v37l-64 37L0 74V37L64 0l64 37zM2.054 38.185v34.63L64 108.627l61.946-35.812v-34.63L64 2.373 2.054 38.185z" fill="#000000"></path></svg><svg x="87" y="554" width="60" height="35" style="user-select:none;overflow:visible;cursor:default"><rect transform="matrix(0.707 0.409 -0.707 0.409 0 0)" width="60" height="35" rx="5" ry="5" fill="#4286c5"></rect><text transform="matrix(0.707 0.409 -0.707 0.409 0 0)" font-family="Open Sans" font-size="20pt" fill="#ffffff" text-anchor="middle" x="50%" y="75%"><tspan>T2</tspan></text></svg></g></g><g><g transform="translate(0 0)"><svg x="-544" y="555" height="148.142" width="93" viewBox="0 0 24.606249 39.195941"><g transform="translate(-90.671 -137.288)"><path d="M91.985 141.821l14.632 8.448 7.316-4.224-14.632-8.447z" fill="#ececed" fill-rule="evenodd"></path><path d="M91.985 165.958l-1.045 1.81v-1.207z" fill="#d2d2d4" fill-rule="evenodd"></path><path d="M91.985 165.958l14.632 8.447-1.046 1.81-14.566-8.56zM106.617 174.405l-1.046 1.81h2.09z" fill="#d2d2d4" fill-rule="evenodd"></path><path d="M91.985 141.821v24.137l14.632 8.447V150.27z" fill="#d2d2d4" fill-rule="evenodd"></path><path d="M106.617 174.405l1.045 1.81 7.316-4.223v-1.207l-1.045-.603z" fill="#b8b8bb" fill-rule="evenodd"></path><path d="M106.617 150.27l7.316-4.225v24.137l-7.316 4.223z" fill="#b8b8bb" fill-rule="evenodd"></path><g fill="none" stroke="#83838a"><path d="M113.933 170.182l-7.316 4.223-14.632-8.447-1.045 1.81M91.985 141.821l14.632 8.448 7.316-4.224M106.617 150.27v24.135M105.571 176.216l1.046-1.81 1.045 1.81M113.933 170.182l1.045 1.81" stroke-width=".26818"></path></g><path d="M90.94 167.768v-1.207l1.045-.603V141.82l7.316-4.223 14.632 8.447v24.137l1.045.603v1.207l-7.316 4.224h-2.09z" fill="none" stroke="#000000" stroke-width=".529"></path><ellipse cx="141.009" cy="74.394" fill="#4286c5" rx="6.047" ry="4.714" transform="matrix(.19572 .98066 .96381 .26658 0 0)"></ellipse><ellipse cx="141.009" cy="74.394" fill="#fff" rx="5.037" ry="3.927" transform="matrix(.19572 .98066 .96381 .26658 0 0)"></ellipse><path d="M99.03 153.239c-3.067 2.89-1.034 7.41.27 9.702" fill="none" stroke="#4286c5" stroke-width=".51973284"></path><g transform="translate(374.17 163.896) scale(.26818)"><ellipse cx="272.14" cy="-1124.64" fill="#4286c5" rx="3.335" ry="2.648" transform="matrix(.19572 .98066 .96381 .26658 0 0)"></ellipse><ellipse cx="290.38" cy="-1128.297" fill="#4286c5" rx="3.687" ry="2.835" transform="matrix(.19572 .98066 .96381 .26658 0 0)"></ellipse><ellipse cx="290.282" cy="-1113.221" fill="#4286c5" rx="3.51" ry="2.717" transform="matrix(.19572 .98066 .96381 .26658 0 0)"></ellipse><path d="M-1033.087-41.48c4.26 21.344 17.38 30.943 23.61 33.65M-1039.896-25.075c12.675 15.122 22.864 16.4 30.106 8.948" fill="none" stroke="#4286c5" stroke-width="1.938"></path></g></g></svg></g></g><g><g transform="translate(0 0)"><svg x="-96" y="611" height="111" width="128" fill-rule="evenodd"><path d="M64 74v37l64-37V37L64 74z" fill="#b8b8bb"></path><path d="M0 37v37l64 37V74L0 37z" fill="#d2d2d4"></path><path d="M0 37L64 0l64 37-64 37L0 37z" fill="#ececed"></path><path d="M64 73.407l62.111-35.86.514.889-62.487 36.078h-.276L.743 38.072l.514-.89L64 73.407z" fill="#83838a"></path><path d="M63.486 74h1.027v36h-1.027z" fill="#83838a"></path><path d="M128 37v37l-64 37L0 74V37L64 0l64 37zM2.054 38.185v34.63L64 108.627l61.946-35.812v-34.63L64 2.373 2.054 38.185z" fill="#000000"></path></svg><svg x="-41" y="628" width="60" height="35" style="user-select:none;overflow:visible;cursor:default"><rect transform="matrix(0.707 0.409 -0.707 0.409 0 0)" width="60" height="35" rx="5" ry="5" fill="#4286c5"></rect><text transform="matrix(0.707 0.409 -0.707 0.409 0 0)" font-family="Open Sans" font-size="20pt" fill="#ffffff" text-anchor="middle" x="50%" y="75%"><tspan>T2</tspan></text></svg></g></g><g><g transform="translate(0 0)"><svg x="-368" y="657" height="148.142" width="93" viewBox="0 0 24.606249 39.195941"><g transform="translate(-90.671 -137.288)"><path d="M91.985 141.821l14.632 8.448 7.316-4.224-14.632-8.447z" fill="#ececed" fill-rule="evenodd"></path><path d="M91.985 165.958l-1.045 1.81v-1.207z" fill="#d2d2d4" fill-rule="evenodd"></path><path d="M91.985 165.958l14.632 8.447-1.046 1.81-14.566-8.56zM106.617 174.405l-1.046 1.81h2.09z" fill="#d2d2d4" fill-rule="evenodd"></path><path d="M91.985 141.821v24.137l14.632 8.447V150.27z" fill="#d2d2d4" fill-rule="evenodd"></path><path d="M106.617 174.405l1.045 1.81 7.316-4.223v-1.207l-1.045-.603z" fill="#b8b8bb" fill-rule="evenodd"></path><path d="M106.617 150.27l7.316-4.225v24.137l-7.316 4.223z" fill="#b8b8bb" fill-rule="evenodd"></path><g fill="none" stroke="#83838a"><path d="M113.933 170.182l-7.316 4.223-14.632-8.447-1.045 1.81M91.985 141.821l14.632 8.448 7.316-4.224M106.617 150.27v24.135M105.571 176.216l1.046-1.81 1.045 1.81M113.933 170.182l1.045 1.81" stroke-width=".26818"></path></g><path d="M90.94 167.768v-1.207l1.045-.603V141.82l7.316-4.223 14.632 8.447v24.137l1.045.603v1.207l-7.316 4.224h-2.09z" fill="none" stroke="#000000" stroke-width=".529"></path><ellipse cx="141.009" cy="74.394" fill="#4286c5" rx="6.047" ry="4.714" transform="matrix(.19572 .98066 .96381 .26658 0 0)"></ellipse><ellipse cx="141.009" cy="74.394" fill="#fff" rx="5.037" ry="3.927" transform="matrix(.19572 .98066 .96381 .26658 0 0)"></ellipse><path d="M99.03 153.239c-3.067 2.89-1.034 7.41.27 9.702" fill="none" stroke="#4286c5" stroke-width=".51973284"></path><g transform="translate(374.17 163.896) scale(.26818)"><ellipse cx="272.14" cy="-1124.64" fill="#4286c5" rx="3.335" ry="2.648" transform="matrix(.19572 .98066 .96381 .26658 0 0)"></ellipse><ellipse cx="290.38" cy="-1128.297" fill="#4286c5" rx="3.687" ry="2.835" transform="matrix(.19572 .98066 .96381 .26658 0 0)"></ellipse><ellipse cx="290.282" cy="-1113.221" fill="#4286c5" rx="3.51" ry="2.717" transform="matrix(.19572 .98066 .96381 .26658 0 0)"></ellipse><path d="M-1033.087-41.48c4.26 21.344 17.38 30.943 23.61 33.65M-1039.896-25.075c12.675 15.122 22.864 16.4 30.106 8.948" fill="none" stroke="#4286c5" stroke-width="1.938"></path></g></g></svg></g></g><g><g transform="translate(0 0)"><svg x="-184" y="802" height="95.068" width="63" viewBox="0 0 16.669 25.153"><path d="M16.668 22.903q0 1.64-.864 2.091-.865.451-2.297-.376L3.161 18.645q-1.433-.827-2.297-2.276Q.001 14.921 0 13.28q0-.723.042-1.39.042-.666.166-1.394.124-.727.313-1.302.19-.575.51-1.039.319-.464.733-.683.414-.22 1.012-.147.598.073 1.32.49.107.06.497.58.391.52.882 1.165.491.646 1.279 1.394.788.75 1.58 1.207.793.458 1.58.618.788.161 1.28.083.49-.079.881-.147.39-.069.497-.007.722.416 1.32 1.035.598.619 1.013 1.315.414.697.734 1.531t.509 1.627q.19.793.313 1.664.124.872.166 1.586.042.713.042 1.438zM12.88 8.51q0 2.173-1.332 2.942-1.332.769-3.214-.318-1.882-1.086-3.214-3.393Q3.79 5.434 3.79 3.26q0-2.173 1.331-2.942 1.332-.77 3.214.317t3.214 3.394q1.332 2.306 1.332 4.48z" fill="#000000"></path></svg></g></g></g><g pointer-events=""></g><g pointer-events=""></g><g pointer-events=""><g><g transform="translate(0 0)"><svg x="32" y="611" overflow="visible" style="user-select:none"><text stroke="#ffffff" stroke-width="4" font-family="Open Sans" y="36.5" font-size="25pt" fill="#f5b720" font-weight="bold" transform="matrix(0.707 0.409 -0.707 0.409 0 0)" xml:space="preserve"><tspan x="8" dy="0">NAT</tspan><tspan x="8" dy="1.1em"></tspan></text><text font-family="Open Sans" y="36.5" font-size="25pt" fill="#f5b720" font-weight="bold" transform="matrix(0.707 0.409 -0.707 0.409 0 0)" xml:space="preserve"><tspan x="8" dy="0">NAT</tspan><tspan x="8" dy="1.1em"></tspan></text></svg></g></g><g><g transform="translate(0 0)"><svg x="-512" y="389" overflow="visible" style="user-select:none"><text stroke="#ffffff" stroke-width="4" font-family="Open Sans" y="36.5" font-size="25pt" fill="#f5b720" font-weight="bold" transform="matrix(0.707 0.409 -0.707 0.409 0 0)" xml:space="preserve"><tspan x="8" dy="0">Postgres</tspan><tspan x="8" dy="1.1em">Master</tspan></text><text font-family="Open Sans" y="36.5" font-size="25pt" fill="#f5b720" font-weight="bold" transform="matrix(0.707 0.409 -0.707 0.409 0 0)" xml:space="preserve"><tspan x="8" dy="0">Postgres</tspan><tspan x="8" dy="1.1em">Master</tspan></text></svg></g></g><g><g transform="translate(0 0)"><svg x="-400" y="453" overflow="visible" style="user-select:none"><text stroke="#ffffff" stroke-width="4" font-family="Open Sans" y="36.5" font-size="25pt" fill="#f5b720" font-weight="bold" transform="matrix(0.707 0.409 -0.707 0.409 0 0)" xml:space="preserve"><tspan x="8" dy="0">Redis</tspan></text><text font-family="Open Sans" y="36.5" font-size="25pt" fill="#f5b720" font-weight="bold" transform="matrix(0.707 0.409 -0.707 0.409 0 0)" xml:space="preserve"><tspan x="8" dy="0">Redis</tspan></text></svg></g></g><g><g transform="translate(0 0)"><svg x="-256" y="537" overflow="visible" style="user-select:none"><text stroke="#ffffff" stroke-width="4" font-family="Open Sans" y="36.5" font-size="25pt" fill="#f5b720" font-weight="bold" transform="matrix(0.707 0.409 -0.707 0.409 0 0)" xml:space="preserve"><tspan x="8" dy="0">Lambda</tspan></text><text font-family="Open Sans" y="36.5" font-size="25pt" fill="#f5b720" font-weight="bold" transform="matrix(0.707 0.409 -0.707 0.409 0 0)" xml:space="preserve"><tspan x="8" dy="0">Lambda</tspan></text></svg></g></g><g><g transform="translate(0 0)"><svg x="64" y="777" overflow="visible" style="user-select:none"><text stroke="#ffffff" stroke-width="4" font-family="Open Sans" y="36.5" font-size="25pt" fill="#f5b720" font-weight="bold" transform="matrix(0.707 -0.409 0.707 0.409 0 0)" xml:space="preserve"><tspan x="8" dy="0">us-east-1a</tspan></text><text font-family="Open Sans" y="36.5" font-size="25pt" fill="#f5b720" font-weight="bold" transform="matrix(0.707 -0.409 0.707 0.409 0 0)" xml:space="preserve"><tspan x="8" dy="0">us-east-1a</tspan></text></svg></g></g><g><g transform="translate(0 0)"><svg x="-128" y="685" overflow="visible" style="user-select:none"><text stroke="#ffffff" stroke-width="4" font-family="Open Sans" y="36.5" font-size="25pt" fill="#f5b720" font-weight="bold" transform="matrix(0.707 0.409 -0.707 0.409 0 0)" xml:space="preserve"><tspan x="8" dy="0">Bastion</tspan></text><text font-family="Open Sans" y="36.5" font-size="25pt" fill="#f5b720" font-weight="bold" transform="matrix(0.707 0.409 -0.707 0.409 0 0)" xml:space="preserve"><tspan x="8" dy="0">Bastion</tspan></text></svg></g></g><g><g transform="translate(0 0)"><svg x="320" y="629" overflow="visible" style="user-select:none"><text stroke="#ffffff" stroke-width="4" font-family="Open Sans" y="36.5" font-size="25pt" fill="#f5b720" font-weight="bold" transform="matrix(0.707 -0.409 0.707 0.409 0 0)" xml:space="preserve"><tspan x="8" dy="0">us-east-1b</tspan></text><text font-family="Open Sans" y="36.5" font-size="25pt" fill="#f5b720" font-weight="bold" transform="matrix(0.707 -0.409 0.707 0.409 0 0)" xml:space="preserve"><tspan x="8" dy="0">us-east-1b</tspan></text></svg></g></g><g><g transform="translate(0 0)"><svg x="-16" y="9" overflow="visible" style="user-select:none"><text stroke="#ffffff" stroke-width="4" font-family="Open Sans" y="36.5" font-size="25pt" fill="#f5b720" font-weight="bold" transform="matrix(0.707 0.409 -0.707 0.409 0 0)" xml:space="preserve"><tspan x="8" dy="0">Database</tspan><tspan x="8" dy="1.1em">Subnets</tspan><tspan x="8" dy="1.1em">10.10.21.0/24</tspan><tspan x="8" dy="1.1em">10.10.22.0/24</tspan><tspan x="8" dy="1.1em">10.10.23.0/24</tspan></text><text font-family="Open Sans" y="36.5" font-size="25pt" fill="#f5b720" font-weight="bold" transform="matrix(0.707 0.409 -0.707 0.409 0 0)" xml:space="preserve"><tspan x="8" dy="0">Database</tspan><tspan x="8" dy="1.1em">Subnets</tspan><tspan x="8" dy="1.1em">10.10.21.0/24</tspan><tspan x="8" dy="1.1em">10.10.22.0/24</tspan><tspan x="8" dy="1.1em">10.10.23.0/24</tspan></text></svg></g></g><g><g transform="translate(0 0)"><svg x="144" y="102" overflow="visible" style="user-select:none"><text stroke="#ffffff" stroke-width="4" font-family="Open Sans" y="36.5" font-size="25pt" fill="#f5b720" font-weight="bold" transform="matrix(0.707 0.409 -0.707 0.409 0 0)" xml:space="preserve"><tspan x="8" dy="0">ElastiCache</tspan><tspan x="8" dy="1.1em">Subnets</tspan><tspan x="8" dy="1.1em">10.10.31.0/24</tspan><tspan x="8" dy="1.1em">10.10.32.0/24</tspan><tspan x="8" dy="1.1em">10.10.33.0/24</tspan></text><text font-family="Open Sans" y="36.5" font-size="25pt" fill="#f5b720" font-weight="bold" transform="matrix(0.707 0.409 -0.707 0.409 0 0)" xml:space="preserve"><tspan x="8" dy="0">ElastiCache</tspan><tspan x="8" dy="1.1em">Subnets</tspan><tspan x="8" dy="1.1em">10.10.31.0/24</tspan><tspan x="8" dy="1.1em">10.10.32.0/24</tspan><tspan x="8" dy="1.1em">10.10.33.0/24</tspan></text></svg></g></g><g><g transform="translate(0 0)"><svg x="304" y="194" overflow="visible" style="user-select:none"><text stroke="#ffffff" stroke-width="4" font-family="Open Sans" y="36.5" font-size="25pt" fill="#f5b720" font-weight="bold" transform="matrix(0.707 0.409 -0.707 0.409 0 0)" xml:space="preserve"><tspan x="8" dy="0">Private</tspan><tspan x="8" dy="1.1em">Subnets</tspan><tspan x="8" dy="1.1em">10.10.1.0/24</tspan><tspan x="8" dy="1.1em">10.10.2.0/24</tspan><tspan x="8" dy="1.1em">10.10.3.0/24</tspan></text><text font-family="Open Sans" y="36.5" font-size="25pt" fill="#f5b720" font-weight="bold" transform="matrix(0.707 0.409 -0.707 0.409 0 0)" xml:space="preserve"><tspan x="8" dy="0">Private</tspan><tspan x="8" dy="1.1em">Subnets</tspan><tspan x="8" dy="1.1em">10.10.1.0/24</tspan><tspan x="8" dy="1.1em">10.10.2.0/24</tspan><tspan x="8" dy="1.1em">10.10.3.0/24</tspan></text></svg></g></g><g><g transform="translate(0 0)"><svg x="464" y="287" overflow="visible" style="user-select:none"><text stroke="#ffffff" stroke-width="4" font-family="Open Sans" y="36.5" font-size="25pt" fill="#f5b720" font-weight="bold" transform="matrix(0.707 0.409 -0.707 0.409 0 0)" xml:space="preserve"><tspan x="8" dy="0">Public</tspan><tspan x="8" dy="1.1em">Subnets</tspan><tspan x="8" dy="1.1em">10.10.11.0/24</tspan><tspan x="8" dy="1.1em">10.10.12.0/24</tspan><tspan x="8" dy="1.1em">10.10.13.0/24</tspan></text><text font-family="Open Sans" y="36.5" font-size="25pt" fill="#f5b720" font-weight="bold" transform="matrix(0.707 0.409 -0.707 0.409 0 0)" xml:space="preserve"><tspan x="8" dy="0">Public</tspan><tspan x="8" dy="1.1em">Subnets</tspan><tspan x="8" dy="1.1em">10.10.11.0/24</tspan><tspan x="8" dy="1.1em">10.10.12.0/24</tspan><tspan x="8" dy="1.1em">10.10.13.0/24</tspan></text></svg></g></g><g><g transform="translate(0 0)"><svg x="-256" y="222" overflow="visible" style="user-select:none"><text stroke="#ffffff" stroke-width="4" font-family="Open Sans" y="36.5" font-size="25pt" fill="#f5b720" font-weight="bold" transform="matrix(0.707 0.409 -0.707 0.409 0 0)" xml:space="preserve"><tspan x="8" dy="0">Postgres</tspan><tspan x="8" dy="1.1em">Replica</tspan></text><text font-family="Open Sans" y="36.5" font-size="25pt" fill="#f5b720" font-weight="bold" transform="matrix(0.707 0.409 -0.707 0.409 0 0)" xml:space="preserve"><tspan x="8" dy="0">Postgres</tspan><tspan x="8" dy="1.1em">Replica</tspan></text></svg></g></g><g><g transform="translate(0 0)"><svg x="-128" y="296" overflow="visible" style="user-select:none"><text stroke="#ffffff" stroke-width="4" font-family="Open Sans" y="36.5" font-size="25pt" fill="#f5b720" font-weight="bold" transform="matrix(0.707 0.409 -0.707 0.409 0 0)" xml:space="preserve"><tspan x="8" dy="0">Redis</tspan><tspan x="8" dy="1.1em">Replica</tspan></text><text font-family="Open Sans" y="36.5" font-size="25pt" fill="#f5b720" font-weight="bold" transform="matrix(0.707 0.409 -0.707 0.409 0 0)" xml:space="preserve"><tspan x="8" dy="0">Redis</tspan><tspan x="8" dy="1.1em">Replica</tspan></text></svg></g></g><g><g transform="translate(0 0)"><svg x="0" y="389" overflow="visible" style="user-select:none"><text stroke="#ffffff" stroke-width="4" font-family="Open Sans" y="36.5" font-size="25pt" fill="#f5b720" font-weight="bold" transform="matrix(0.707 0.409 -0.707 0.409 0 0)" xml:space="preserve"><tspan x="8" dy="0">Lambda</tspan></text><text font-family="Open Sans" y="36.5" font-size="25pt" fill="#f5b720" font-weight="bold" transform="matrix(0.707 0.409 -0.707 0.409 0 0)" xml:space="preserve"><tspan x="8" dy="0">Lambda</tspan></text></svg></g></g><g><g transform="translate(0 0)"><svg x="224" y="500" overflow="visible" style="user-select:none"><text stroke="#ffffff" stroke-width="4" font-family="Open Sans" y="36.5" font-size="25pt" fill="#f5b720" font-weight="bold" transform="matrix(0.707 0.409 -0.707 0.409 0 0)" xml:space="preserve"><tspan x="8" dy="0">NAT</tspan></text><text font-family="Open Sans" y="36.5" font-size="25pt" fill="#f5b720" font-weight="bold" transform="matrix(0.707 0.409 -0.707 0.409 0 0)" xml:space="preserve"><tspan x="8" dy="0">NAT</tspan></text></svg></g></g><g><g transform="translate(0 0)"><svg x="-416" y="759" overflow="visible" style="user-select:none"><text stroke="#ffffff" stroke-width="4" font-family="Open Sans" y="36.5" font-size="25pt" fill="#f5b720" font-weight="bold" transform="matrix(0.707 0.409 -0.707 0.409 0 0)" xml:space="preserve"><tspan x="8" dy="0">CloudFront</tspan><tspan x="8" dy="1.1em">Distribution</tspan></text><text font-family="Open Sans" y="36.5" font-size="25pt" fill="#f5b720" font-weight="bold" transform="matrix(0.707 0.409 -0.707 0.409 0 0)" xml:space="preserve"><tspan x="8" dy="0">CloudFront</tspan><tspan x="8" dy="1.1em">Distribution</tspan></text></svg></g></g><g><g transform="translate(0 0)"><svg x="-640" y="629" overflow="visible" style="user-select:none"><text stroke="#ffffff" stroke-width="4" font-family="Open Sans" y="36.5" font-size="25pt" fill="#f5b720" font-weight="bold" transform="matrix(0.707 0.409 -0.707 0.409 0 0)" xml:space="preserve"><tspan x="8" dy="0">API Gateway</tspan><tspan x="8" dy="1.1em">Custom Domain</tspan></text><text font-family="Open Sans" y="36.5" font-size="25pt" fill="#f5b720" font-weight="bold" transform="matrix(0.707 0.409 -0.707 0.409 0 0)" xml:space="preserve"><tspan x="8" dy="0">API Gateway</tspan><tspan x="8" dy="1.1em">Custom Domain</tspan></text></svg></g></g><g><g transform="translate(0 0)"><svg x="-816" y="527" overflow="visible" style="user-select:none"><text stroke="#ffffff" stroke-width="4" font-family="Open Sans" y="36.5" font-size="25pt" fill="#f5b720" font-weight="bold" transform="matrix(0.707 0.409 -0.707 0.409 0 0)" xml:space="preserve"><tspan x="8" dy="0">API Gateway</tspan></text><text font-family="Open Sans" y="36.5" font-size="25pt" fill="#f5b720" font-weight="bold" transform="matrix(0.707 0.409 -0.707 0.409 0 0)" xml:space="preserve"><tspan x="8" dy="0">API Gateway</tspan></text></svg></g></g></g></g></g></svg>